Coordinates
version=1
nRows=12
nColumns=33
inDegrees=yes

Units are S.I. units (second, meters, Newtons, ...)
Angles are in degrees.

endheader
time	ground_thorax_rot_x	ground_thorax_rot_y	ground_thorax_rot_z	ground_thorax_tx	ground_thorax_ty	ground_thorax_tz	clav_prot_r	clav_elev_r	scapula_abduction_r	scapula_elevation_r	scapula_upward_rot_r	scapula_winging_r	shoulder_elv_r	plane_of_elev_r	axial_rot_r	elbow_flexion_r	pro_sup_r	wrist_flex_r	wrist_dev_r	clav_prot_l	clav_elev_l	scapula_abduction_l	scapula_elevation_l	scapula_upward_rot_l	scapula_winging_l	shoulder_elv_l	plane_of_elev_l	axial_rot_l	elbow_flexion_l	pro_sup_l	wrist_flex_l	wrist_dev_l
      6.13000000	    -40.35717659	     -5.53874076	      0.90890673	    -59.28185912	    810.98464898	      5.11982237	      5.54426161	    -45.00000000	     45.00000000	    -45.00000000	    -10.83826706	  -1531.53894142	  -2096.15992094	     29.42420562	     74.46793514	   2171.67474705	     26.52742743	     18.30212945	      9.50182855	     16.98973645	     42.72820060	    -45.00000000	    -42.54535839	    -28.44748703	   3320.13184586	  -3701.00866408	    135.61314199	   -179.38608065	   1805.80584785	   -340.11038121	     13.44212099	    -19.69521500
      6.14000000	    -40.11886218	     -6.29555207	      1.49973962	    -57.48997295	    808.91797107	      5.42939986	      6.49634353	    -45.00000000	     45.00000000	    -45.00000000	    -12.10604722	  -1531.35341785	  -2096.23013069	     29.36625715	     74.89930298	   2171.51341109	     24.48697604	     18.07279487	      9.54446900	     16.66730284	     42.15241777	    -45.00000000	    -42.34623655	    -29.89287973	   3319.98335267	  -3700.73337787	    135.11731454	   -178.93916314	   1805.65866182	   -340.08277274	     13.12614814	    -19.51057925
      6.15000000	    -39.87508321	     -5.92213176	      0.80159529	    -56.05156318	    807.08866858	      5.68641854	      5.81930741	    -45.00000000	     45.00000000	    -45.00000000	    -11.12751983	  -1530.90636039	  -2096.35322265	     28.89317042	     75.60124755	   2171.11858072	     21.69180960	     17.90791092	     10.00329449	     17.05810116	     42.30459314	    -45.00000000	    -41.89505380	    -28.09641040	   3319.70357860	  -3701.14666914	    135.85036735	   -179.96747387	   1805.68798212	   -339.08578341	     12.58756110	    -19.44191686
      6.16000000	    -39.59615672	     -6.54687118	      1.31679751	    -54.99689936	    805.48159518	      5.87219567	      6.37804204	    -45.00000000	     45.00000000	    -45.00000000	    -12.05866995	  -1531.07897288	  -2096.59657472	     28.97913422	     76.44749048	   2170.86885819	     20.35973490	     17.66919168	      9.90508076	     16.20562957	     41.73176887	    -45.00000000	    -41.45237801	    -28.89909575	   3319.82834963	  -3700.89050359	    135.53575151	   -179.99999979	   1805.70231348	   -337.97389640	     12.25325713	    -19.34287702
      6.17000000	    -39.37057656	     -6.61220798	      1.11598481	    -54.35532774	    804.07880088	      5.97082136	      6.27120902	    -45.00000000	     45.00000000	    -45.00000000	    -12.00709341	  -1530.97025879	  -2096.73451388	     28.85019475	     76.97102000	   2170.67053991	     19.34917978	     17.51627882	     10.04762101	     16.28877050	     41.40630019	    -45.00000000	    -41.15741550	    -28.43984674	   3319.71506771	  -3700.99623218	    135.71308021	   -179.99999979	   1805.72985624	   -336.71580234	     11.81494543	    -19.28357974
      6.18000000	    -39.14269152	     -6.63497586	      0.89229654	    -54.14009580	    802.85318031	      5.97029783	      6.14819307	    -45.00000000	     45.00000000	    -45.00000000	    -11.94341282	  -1530.83701983	  -2096.80789926	     28.69158026	     77.44369689	   2170.51128970	     18.57388044	     17.43879406	     10.22915641	     16.24165445	     41.23903973	    -45.00000000	    -40.88623723	    -28.01731256	   3319.66732255	  -3701.11382758	    135.77087322	   -179.99999979	   1805.65658236	   -335.33871389	     11.37410189	    -19.23708769
      6.19000000	    -38.85701582	     -6.92799665	      0.98432684	    -54.35954552	    801.78919091	      5.86453541	      6.10285784	    -45.00000000	     45.00000000	    -45.00000000	    -12.20693925	  -1530.84152813	  -2096.59913357	     28.53945264	     78.02500432	   2170.76596803	     18.16025767	     17.53321842	     10.56802659	     16.16946751	     40.67403338	    -45.00000000	    -40.25452947	    -27.57178442	   3320.08526879	  -3701.26315445	    135.92519155	   -179.99999979	   1805.73405580	   -334.33550632	     10.58586365	    -19.07781347
      6.20000000	    -38.78863048	     -6.81443634	      0.62455962	    -55.01212012	    800.85964137	      5.65429398	      6.18353287	    -45.00000000	     45.00000000	    -45.00000000	    -12.05051453	  -1530.98696954	  -2097.03964812	     28.59162640	     78.22807843	   2170.38658932	     17.91481571	     17.39868522	     10.36441070	     15.93215182	     41.11229728	    -45.00000000	    -40.33344173	    -27.61096567	   3319.90726131	  -3701.11862206	    135.81518674	   -179.90834483	   1805.72227023	   -333.26235291	     10.81898381	    -19.24900217
      6.21000000	    -38.64710880	     -6.90762388	      0.62617311	    -56.08718791	    800.05226691	      5.34886952	      6.19635699	    -45.00000000	     45.00000000	    -45.00000000	    -12.36193937	  -1530.91434484	  -2097.00521378	     28.40830259	     78.59755153	   2170.29817925	     17.85690988	     17.39886619	     10.54288380	     16.00973058	     40.95915954	    -45.00000000	    -40.22584457	    -27.40404459	   3319.95273942	  -3701.30887533	    135.90087233	   -179.99999979	   1805.66237054	   -332.39372818	     10.40744273	    -19.17520291
      6.22000000	    -38.54335116	     -7.04889842	      0.57872773	    -57.56686479	    799.35125435	      4.96413394	      6.21381060	    -45.00000000	     45.00000000	    -45.00000000	    -12.64566030	  -1530.99297007	  -2097.07295910	     28.35510026	     78.99643025	   2170.35964315	     18.00682692	     17.49919799	     10.70609522	     15.91353983	     40.78296828	    -45.00000000	    -40.08982602	    -27.26227121	   3320.24773383	  -3701.50118395	    135.90055046	   -179.99999979	   1805.60475274	   -332.02502935	     10.20221356	    -19.15274737
      6.23000000	    -38.46592630	     -7.11337357	      0.62216208	    -59.43761374	    798.73894603	      4.51908091	      6.26943336	    -45.00000000	     45.00000000	    -45.00000000	    -12.94325064	  -1531.29431202	  -2096.99521126	     28.30970768	     79.40581984	   2170.33132327	     18.29980481	     17.57633765	     10.77152345	     15.85914671	     40.79793748	    -45.00000000	    -39.91675039	    -27.14851792	   3320.49429966	  -3701.59048525	    135.83718608	   -179.95892426	   1805.38461558	   -332.04257300	     10.11802837	    -19.10245691
      6.24000000	    -38.32499456	     -7.16282954	      0.55593420	    -61.67018154	    798.20536572	      4.03847361	      6.32003045	    -45.00000000	     45.00000000	    -45.00000000	    -13.06848692	  -1531.55046257	  -2097.06104004	     28.24092356	     79.75847276	   2170.31707712	     18.68531455	     17.62911367	     10.74142550	     15.81265772	     40.91740510	    -45.00000000	    -39.69470424	    -27.01182728	   3320.72971703	  -3701.71085655	    135.97851190	   -179.64674725	   1805.28824036	   -332.39206380	     10.20301498	    -19.15620005
